<svg viewBox="0 0 167.68 131.56" xmlns="http://www.w3.org/2000/svg" xmlns:xlink="http://www.w3.org/1999/xlink" overflow="hidden"><defs></defs><g id="Слой_2"><g id="OBJECTS"><path d="M166.73 65.23C166.117 65.0477 165.471 65.0066 164.84 65.11 164.183 63.8508 163.31 62.7169 162.26 61.76 158.86 58.43 150.57 49.09 143.26 49.09 142.26 49.09 141.32 49.09 140.44 49.09 142.21 41.03 144.44 32.95 138.44 22.64 131.54 10.62 125.11-0.31 123 0 120.89 0.31 121.71 16.88 124.12 25.08 124.31 25.73 124.56 26.46 124.83 27.25 124.5 26.94 124.18 26.62 123.83 26.31 113.29 17.25 103.57 9.1 101.71 10.1 99.85 11.1 106.14 26.44 111.15 33.36 114.5 37.98 122.92 46.86 128.15 52.27 126.15 54.04 124.84 56.68 122.83 60.45 121.43 63.07 102.59 69.54 76.55 56.24 64.83 50.24 55.62 50.79 49.17 54.04 49.0923 52.3765 49.2676 50.7109 49.69 49.1 50.69 46.42 34.69 53.62 38.75 61.35 39.0816 61.9929 39.4841 62.5967 39.95 63.15 38.6152 65.5923 38.0472 68.3801 38.32 71.15 39.8 80.57 20.77 82.66 17.64 85.77 14.51 88.88 6.19 93 1.76 97.07-2.67 101.14 2.13 102.79 6.56 101.13 10.99 99.47 15.8 93.93 17.83 93.37 19.86 92.81 10.63 107.59 6.93 110.37 3.23 113.15 4.16 122.37 11.93 116.47 19.7 110.57 24.67 101.14 26.52 99.29 27.75 98.06 40.7 103.83 50.87 102.04 55.98 101.14 61.2 93.9 63.87 91.25 69.56 94.89 78.17 89.49 89.26 94.31 99.1 98.58 95.97 99.85 105.75 104.52 115.53 109.19 120.16 108 120.16 108 122.5 109 131.98 119.38 142.49 125.8 153 132.22 155.62 132.65 156.93 130.03 158.24 127.41 151.24 121.13 151.24 121.13 153.262 122.463 155.358 123.679 157.52 124.77 162.19 127.26 166.13 123.17 164.67 121.27 163.21 119.37 160 118.21 152.67 112.96 145.34 107.71 143.48 98.37 143.48 98.37 145.09 96.76 145.67 91.95 145.67 91.95 145.67 91.95 146.11 95.16 148.59 93.55 151.07 91.94 149.46 83.48 148.59 80.08 152.261 79.5117 155.714 77.9718 158.59 75.62 163.06 75.3 165.5 72.69 165.5 69.47L165.5 69.06C167.22 68.86 168.72 65.75 166.73 65.23Z" fill="#FFFFFF"/></g></g></svg>